<?xml version="1.0" standalone="no"?>
<!DOCTYPE svg PUBLIC "-//W3C//DTD SVG 20010904//EN"
 "http://www.w3.org/TR/2001/REC-SVG-20010904/DTD/svg10.dtd">
<svg version="1.0" xmlns="http://www.w3.org/2000/svg"
 width="512.000000pt" height="512.000000pt" viewBox="0 0 512.000000 512.000000"
 preserveAspectRatio="xMidYMid meet">

<g transform="translate(0.000000,512.000000) scale(0.100000,-0.100000)"
fill="#000000" stroke="none">
<path d="M70 4592 c-70 -37 -70 -39 -70 -495 0 -451 1 -455 62 -491 61 -36
136 -19 175 41 16 24 18 62 21 365 l3 338 325 0 c353 0 371 2 412 55 30 38 30
112 0 150 -42 54 -53 55 -490 55 -372 0 -406 -1 -438 -18z"/>
<path d="M4174 4596 c-72 -32 -100 -131 -52 -191 41 -53 59 -55 412 -55 l325
0 3 -338 c3 -303 5 -341 21 -365 38 -58 110 -77 174 -44 62 32 63 41 63 494 0
456 0 458 -70 495 -32 17 -66 18 -440 18 -316 -1 -412 -4 -436 -14z"/>
<path d="M833 3821 c-67 -42 -63 43 -63 -1263 0 -1156 1 -1184 20 -1215 45
-74 139 -83 197 -19 l33 36 0 1200 0 1200 -33 36 c-42 46 -104 56 -154 25z"/>
<path d="M1343 3820 c-67 -41 -63 44 -63 -1260 0 -1304 -4 -1219 63 -1260 28
-18 51 -20 192 -20 141 0 164 2 192 20 67 41 63 -44 63 1262 0 1156 -1 1184
-20 1215 -34 56 -61 63 -237 63 -139 0 -162 -2 -190 -20z"/>
<path d="M2113 3821 c-67 -42 -63 43 -63 -1263 0 -1156 1 -1184 20 -1215 45
-74 139 -83 197 -19 l33 36 0 1200 0 1200 -33 36 c-42 46 -104 56 -154 25z"/>
<path d="M2623 3820 c-67 -41 -63 44 -63 -1260 0 -1304 -4 -1219 63 -1260 28
-18 51 -20 192 -20 141 0 164 2 192 20 67 41 63 -44 63 1262 0 1156 -1 1184
-20 1215 -34 56 -61 63 -237 63 -139 0 -162 -2 -190 -20z"/>
<path d="M3393 3821 c-67 -42 -63 43 -63 -1263 0 -1156 1 -1184 20 -1215 45
-74 139 -83 197 -19 l33 36 0 1200 0 1200 -33 36 c-42 46 -104 56 -154 25z"/>
<path d="M3903 3820 c-67 -41 -63 44 -63 -1260 0 -1304 -4 -1219 63 -1260 28
-18 51 -20 192 -20 141 0 164 2 192 20 67 41 63 -44 63 1262 0 1156 -1 1184
-20 1215 -34 56 -61 63 -237 63 -139 0 -162 -2 -190 -20z"/>
<path d="M95 1529 c-37 -10 -73 -42 -86 -76 -5 -14 -9 -202 -9 -431 0 -455 0
-457 70 -494 32 -17 66 -18 438 -18 437 0 448 1 490 55 30 38 30 112 0 150
-41 53 -59 55 -412 55 l-325 0 -3 338 c-3 303 -5 341 -21 365 -32 49 -88 71
-142 56z"/>
<path d="M4956 1529 c-40 -11 -74 -46 -86 -88 -6 -20 -10 -174 -10 -353 l0
-318 -325 0 c-354 0 -372 -2 -413 -55 -30 -38 -30 -112 0 -150 42 -54 53 -55
490 -55 372 0 406 1 438 18 70 37 70 39 70 495 0 358 -2 413 -16 443 -25 51
-91 80 -148 63z"/>
</g>
</svg>
