<svg width="270" height="102" viewBox="0 0 270 102" fill="none" xmlns="http://www.w3.org/2000/svg">
<line x1="2" y1="-2" x2="16" y2="-2" transform="matrix(1 0 0 -1 0 0)" stroke="black" stroke-width="4" stroke-linecap="round"/>
<line x1="2" y1="-2" x2="16" y2="-2" transform="matrix(0 1 1 0 4 0)" stroke="black" stroke-width="4" stroke-linecap="round"/>
<line x1="2" y1="-2" x2="16" y2="-2" transform="matrix(0 -1 -1 0 0 102)" stroke="black" stroke-width="4" stroke-linecap="round"/>
<line x1="2" y1="-2" x2="16" y2="-2" transform="matrix(1 0 0 -1 0 98)" stroke="black" stroke-width="4" stroke-linecap="round"/>
<line x1="2" y1="-2" x2="16" y2="-2" transform="matrix(-1 0 0 1 270 102)" stroke="black" stroke-width="4" stroke-linecap="round"/>
<line x1="2" y1="-2" x2="16" y2="-2" transform="matrix(0 -1 -1 0 266 102)" stroke="black" stroke-width="4" stroke-linecap="round"/>
<line x1="2" y1="-2" x2="16" y2="-2" transform="matrix(0 1 1 0 270 0)" stroke="black" stroke-width="4" stroke-linecap="round"/>
<line x1="2" y1="-2" x2="16" y2="-2" transform="matrix(-1 0 0 1 270 4)" stroke="black" stroke-width="4" stroke-linecap="round"/>
<line x1="2" y1="-2" x2="16" y2="-2" transform="matrix(1 0 0 -1 126 49)" stroke="black" stroke-width="4" stroke-linecap="round"/>
<line x1="2" y1="-2" x2="16" y2="-2" transform="matrix(0 1 1 0 137 42)" stroke="black" stroke-width="4" stroke-linecap="round"/>
</svg>
